<!-- by TradingView --><svg width="18" height="18" viewBox="0 0 18 18" xmlns="http://www.w3.org/2000/svg"><path fill="#F4F0EF" d="M0 0h18v18H0z"/><path d="M8.96 4.15c.14-.13.37-.18.69-.13.35.05.68.15.98.32.53.28.97.62 1.33 1 .2.21.27.45.2.72a.85.85 0 0 1-.5.56c-.4.19-.8.33-1.23.43-.26.06-.45.06-.58 0-.25-.11-.49-.41-.7-.89a5.59 5.59 0 0 1-.41-1.25.78.78 0 0 1 .22-.76Z"/><path d="M7.2 12.61c-.08.26-.26.39-.55.39H4.9c-.23 0-.4-.11-.52-.33-.12-.23-.2-.48-.23-.75-.16-1.35-.2-2.39-.13-3.13a3 3 0 0 1 .3-1.01c.38-.82.87-1.6 1.45-2.33.18-.24.45-.5.79-.8.18-.16.34-.26.5-.29.18-.04.35 0 .5.1.15.09.25.23.32.43.16.48.27.87.34 1.14a4.83 4.83 0 0 1 .1 1.53A45.5 45.5 0 0 1 7.2 12.6Z" fill="#FE6C45"/><path d="M8.73 12.9c-.23-.12-.37-.35-.4-.68 0-.06 0-.22.03-.48.03-.33.1-.76.2-1.27.1-.48.24-.92.43-1.3a2.6 2.6 0 0 1 1.1-1.1 9.1 9.1 0 0 1 2.33-.92c.4-.1.74.01 1 .33.2.25.35.6.43 1.05.17.87.2 2.02.08 3.46-.02.2-.05.35-.1.44a1 1 0 0 1-.66.53c-.08.03-.22.04-.41.04H9.04a.7.7 0 0 1-.31-.1Z" fill="#C395DD"/></svg>