<!-- by TradingView --><svg width="18" height="18" viewBox="0 0 18 18" xmlns="http://www.w3.org/2000/svg"><path fill="#F6EFE5" d="M0 0h18v18H0z"/><path d="M13.9 11.44a.34.34 0 0 0-.3.12.81.81 0 0 1 0-.24c.04-.2.07-.32-.02-.5-.1-.2-.05-.27.07-.44a.03.03 0 0 0 0-.04c-.1-.13-.05-.27-.01-.4v-.05a.4.4 0 0 1-.01-.4.1.1 0 0 0 0-.1c-.11-.19-.06-.27.04-.45a.05.05 0 0 0 0-.04l-.07-.47c-.03-.16-.04-.3-.03-.42a10.59 10.59 0 0 1 .06-.48 3.01 3.01 0 0 0-.08-.17c-.07-.13-.01-.4.05-.53a.1.1 0 0 0 0-.08.86.86 0 0 1-.06-.14c-.02-.09 0-.19.1-.3a.06.06 0 0 0 0-.06c-.07-.12-.06-.28-.1-.53-.01-.1-.05-.22-.1-.34l.04-.02a.03.03 0 0 1 .03.03c0 .03.02.04.05.04a.03.03 0 0 0 .03-.03c.05-.18.05-.47-.12-.6a556.82 556.82 0 0 0-.6-.42h-.25a.04.04 0 0 1-.04-.02.39.39 0 0 0-.37-.14.73.73 0 0 1-.4-.05c-.09-.04-.2-.07-.27-.05-.17.04-.37.11-.58.12l-.04-.01c-.2-.1-.34-.11-.58-.04-.16.04-.4.06-.6.02a.64.64 0 0 0-.32.02.42.42 0 0 1-.39-.06 12.61 12.61 0 0 0-.38.02c-.12.01-.28-.07-.4-.07-.08 0-.19.02-.31.04-.02 0-.03 0-.04.02-.18.18-.25.2-.51.14-.24-.06-.47-.06-.72-.14l.48-.04h.01v-.01c-.03 0-.04-.02-.06-.03l.43.07h.05c.1-.01.19-.03.28-.07L8.1 4c.19-.01.3.03.45.1h.05c.27-.07.44-.15.67.03a.05.05 0 0 0 .06 0c.13-.1.2-.13.36-.05a9.33 9.33 0 0 0 .16.07.92.92 0 0 1 .28-.02c.1 0 .15-.02.23-.05a.62.62 0 0 1 .47-.03c.14.05.2.17.38.08.1-.06.19-.1.26-.12h.06c.19.02.27.06.42.13.02 0 .05.01.07 0 .23-.03.43-.04.62.1l.1.04c.13.02.2.04.24.06l.44.3c.07.05.13.1.17.17.08.1.07.25.12.38.09.26.15.46.17.7.01.09.04.19.07.31.04.1.01.2-.07.31a.07.07 0 0 0-.01.06l.06.14c.04.1-.02.21-.08.35-.06.16.1.32.1.46l-.04.36c-.02.1-.01.2-.02.3v.06l.1.67v.02a.59.59 0 0 1-.1.27v.03c.04.05.07.12.08.19 0 .07-.05.17-.07.25l.01.04a.5.5 0 0 1 .02.37c-.04.13.05.21.03.34-.02.08-.08.15-.1.21a.07.07 0 0 0 0 .06c.07.1.1.22.1.36.01.11-.04.26-.06.39Z" fill="#D2903C"/><path d="m7.1 4.1.05.02h.01v.02l-.5.04c.01.1.07.16.17.18a.01.01 0 0 1 0 .03l-.04.01a.47.47 0 0 1-.18-.17.04.04 0 0 0-.03-.01l-.26-.03a.02.02 0 0 0-.01.02l.05.03a.02.02 0 0 1-.02.02l-.32-.06a.81.81 0 0 0-.68.1c-.21.13-.34.25-.55.28a.02.02 0 0 0 0 .04l.21.14c-.1.05-.2.12-.24.24-.03.12-.12.2-.25.23a.05.05 0 0 0-.04.06c.03.12-.04.27-.1.36a.12.12 0 0 0-.03.08 2.35 2.35 0 0 0 .12.63c0 .17 0 .29-.02.35a22.2 22.2 0 0 0-.09.44l.06.38v.02l-.04.23a.8.8 0 0 0-.04.45l.1.47c.02.16-.04.3-.1.5a.12.12 0 0 0 .01.1c.12.18.1.39.08.6v.25c.01.17-.02.34-.09.52V10.88l.11.22c.04.12 0 .2-.02.29v.09c.03.3.1.57.03.85v.03l.1.38.02.03c.05.07.15.09.2.19.02.07.05.15.06.23 0 .23.2.31.4.35.07.02.14.04.22.08a1.51 1.51 0 0 0 .8.08c.21-.04.44-.02.65.02.32.07.65.06.94.01A3.61 3.61 0 0 1 9 13.7c.06.01.13.02.2.01h.46c.33.02.63-.06.97.01a1.76 1.76 0 0 0 .82 0l.16-.04c.1 0 .2.02.3.05.29.07.42-.12.67-.16.17-.03.33-.05.42-.18.1-.12.2-.23.31-.32a.45.45 0 0 0 .15-.2 3.22 3.22 0 0 1 .18-.47l-.04-.01a.32.32 0 0 0 .07-.1v-.01l.02-.39v-.03c-.04-.1-.08-.17-.09-.29.09-.1.2-.14.31-.12l.1.42a3.61 3.61 0 0 0-.01.41c0 .1-.05.18-.12.27-.12.14-.13.28-.18.52 0 .06-.05.1-.13.13a4.2 4.2 0 0 1-.15.07.14.14 0 0 0-.07.05c-.08.14-.16.27-.29.35a.17.17 0 0 1-.07.02c-.13.02-.24.01-.38.08-.24.12-.5.33-.75.15-.13-.1-.26-.09-.39.01a.5.5 0 0 1-.18.05l-.2-.02a.2.2 0 0 0-.05 0c-.23.04-.39-.02-.61-.09a.34.34 0 0 0-.14 0c-.19.02-.37.05-.56.03-.15 0-.28-.03-.44.01a.4.4 0 0 1-.26 0 .69.69 0 0 0-.46 0 .4.4 0 0 1-.33-.04.05.05 0 0 0-.06 0c-.1.1-.2.15-.34.12a1.53 1.53 0 0 0-.08-.02.3.3 0 0 0-.11 0c-.21.04-.44.06-.64.02-.1-.02-.2-.08-.29-.1l-.04-.01c-.17 0-.36.02-.57.09-.08.02-.16 0-.25-.04a.4.4 0 0 0-.26-.01c-.13.03-.24-.08-.3-.18a.04.04 0 0 0-.04-.01c-.12 0-.2.01-.31-.05-.21-.12-.42-.27-.46-.53a.09.09 0 0 0-.02-.05c-.08-.08-.19-.1-.21-.25a1.42 1.42 0 0 0-.12-.36c-.02-.05-.01-.15 0-.22.06-.25 0-.5-.04-.82-.02-.08.04-.13.04-.22a.1.1 0 0 0-.01-.04.89.89 0 0 1-.1-.43c0-.17.1-.35.08-.53 0-.17 0-.3.02-.43a.63.63 0 0 0-.08-.4.36.36 0 0 1-.01-.29 3.66 3.66 0 0 0 .08-.36c-.06-.29-.17-.62-.08-.95l.05-.19a.3.3 0 0 0 0-.11 2.13 2.13 0 0 1-.04-.36c0-.14.06-.32.09-.47a.86.86 0 0 0-.01-.4c-.07-.19-.1-.47-.1-.61.01-.06.05-.14.11-.24a.16.16 0 0 0 .03-.07c.01-.08-.01-.17.02-.24.05-.1.13-.12.25-.17l.04-.04c.06-.16.12-.25.27-.34l.38-.23c.07-.05.16-.09.25-.12l.06-.03.21-.1a.28.28 0 0 1 .15-.01c.37.07.72.08 1.06.02.06 0 .14 0 .25.02Z" fill="#A66724"/><path d="m13.43 5.38-.1-.38a.15.15 0 0 0-.05-.08l-.45-.3-.03-.02h-.1a.63.63 0 0 1-.25-.1.6.6 0 0 0-.2-.08c-.08-.01-.18.05-.26.05-.12 0-.24-.08-.33-.12a.46.46 0 0 0-.13-.02.1.1 0 0 0-.06.02 1.07 1.07 0 0 1-.47.13c-.21-.04-.3-.23-.55-.1a.6.6 0 0 1-.4.06 16.32 16.32 0 0 1-.18.01c-.11.02-.2-.02-.3-.07a.06.06 0 0 0-.06 0c-.07.04-.18.1-.26.09a.34.34 0 0 1-.1-.04c-.1-.09-.17-.11-.31-.07a.64.64 0 0 1-.38.04c-.06-.02-.1-.03-.1-.06-.03-.03-.05-.04-.07-.04-.11 0-.25.06-.43.13l-.18.05h-.07L6.8 4.4h-.01l.03-.01a.01.01 0 0 0 0-.03c-.1-.02-.15-.08-.15-.18.25.08.48.08.72.14.26.06.33.04.51-.14l.04-.02.31-.04c.12 0 .28.08.4.07a12.57 12.57 0 0 1 .38-.02c.12.08.24.1.4.06.09-.03.19-.04.3-.02.21.04.45.02.61-.02.24-.07.39-.07.58.04l.04.01c.2 0 .41-.08.58-.12.08-.02.18 0 .28.05.1.05.24.07.4.05.14-.02.27.03.36.14a.04.04 0 0 0 .04.02h.24a568.56 568.56 0 0 1 .6.43c.18.12.18.4.13.6a.04.04 0 0 1-.03.02c-.03 0-.04-.01-.05-.04v-.02h-.08Z" fill="#E3A950"/><path d="M6.79 4.4a.84.84 0 0 1-.3.02c-.24.03-.47.01-.71-.05l-.05.01-.39.18a1.47 1.47 0 0 1-.34.2l-.22-.14a.02.02 0 0 1 .01-.04c.21-.03.34-.15.55-.28a.81.81 0 0 1 .68-.1 5.23 5.23 0 0 0 .34.05v-.01l-.04-.02a.02.02 0 0 1 0-.03l.26.03a.04.04 0 0 1 .03.01c.04.08.1.13.18.17Z" fill="#D2903C"/><path d="M11.32 8.09c.17-.04.34-.1.48.04.1.09.13.2.1.33a.35.35 0 0 1-.16.2c-.08.05-.23.13-.33.17l-.3.12c-.16.07-.27.08-.46.13-.08.02-.23.08-.32.15l-.25.12c-.04.02-.06.05-.07.08l.01.04.07.08c.05 0 .1 0 .16-.02l.06-.01c.37 0 .7.03 1.02.08.1.02.18.05.27.1.14.07.2.08.34.12.57.15.92.7.66 1.24-.21.46-.84.68-1.3.76-.27.06-.57.08-.89.07a21 21 0 0 0-.62 0c-.2.01-.45 0-.73-.03-.19-.01-.5-.26-.62-.37a.68.68 0 0 1-.15-.83.27.27 0 0 1 .17-.13l.09-.03h.03a.05.05 0 0 1 .04.05l-.01.03c-.12.22-.07.4.15.55.06.04.16.08.3.1.18.04.37.08.6.11.32.06.5.05.85 0 .23-.03.49-.02.7-.11a.22.22 0 0 1 .1-.02c.3.01.66-.06.86-.33.09-.11.06-.23.04-.36 0-.02 0-.03-.02-.04l-.16-.16c-.03 0-.1-.04-.21-.1-.1-.05-.28-.08-.51-.1-.3-.03-.64-.05-1.02-.06-.25 0-.7-.04-.89-.23-.25-.26.07-.64.3-.78v-.02l-.3.07h-.03l-.1.07a16.75 16.75 0 0 1-1.1.36 2 2 0 0 1-.46.07H7.7a.02.02 0 0 1 0-.02l.1-.06a.02.02 0 0 0 .02-.02.02.02 0 0 0-.02-.02l-.04-.01a.47.47 0 0 0-.2-.01 2.72 2.72 0 0 1-.46.05.03.03 0 0 1 0-.05l.2-.12.04-.02c.04-.02.15-.04.32-.07.11-.02.22 0 .33-.03a.04.04 0 0 1 .03 0l.01.01h.02c.11 0 .23-.02.35-.04.1-.02.19-.08.26-.18a.1.1 0 0 1 .04-.04l.43-.16a2.27 2.27 0 0 1 .75-.26l.13-.05a6.37 6.37 0 0 0 1.3-.41Z" fill="url(#a)"/><path d="M9.96 5.67a.03.03 0 0 1 .03.02v.02l-.03.04a.02.02 0 0 0 0 .02.02.02 0 0 0 0 .01c.19.07.29-.05.44-.07a.04.04 0 0 1 .04.02v.02c0 .06-.02.11-.05.14a.63.63 0 0 1-.4.15h-.02l-.17.08a.09.09 0 0 0-.05.1c.02.1.03.15-.06.2l-.01.03.01.02h.09l.03-.01.17.03.07.02.06.05a.04.04 0 0 0 .04 0c.22-.08.35-.09.65-.12h.37c.2 0 .42 0 .63-.03.16-.02.33.05.35.22a.2.2 0 0 1 0 .12v.02l-.02.01-.27.14c-.14.07-.24.05-.41.03h-.02l-.46.07h-.04c-.06-.02-.1-.06-.17-.08a1.15 1.15 0 0 0-.43 0l-.31.05a12.61 12.61 0 0 1-.85.06l-.06.06h-.02c-.02-.01-.04 0-.07.01-.12.14-.23.32-.34.43l-.26.27c-.12.1-.25.27-.39.4a1.24 1.24 0 0 0-.16.18 2.27 2.27 0 0 0-.1.2l-.1.08a.07.07 0 0 0-.03.03 1.51 1.51 0 0 1-.57.68l-.14.03-.26.43a5.76 5.76 0 0 1-.94 1.01l-.2.26h-.01c-.07.13-.1.22-.2.26-.08.05-.14.14-.23.18-.14.06-.27.04-.4-.07a.05.05 0 0 1-.01-.06.55.55 0 0 0 .05-.12c.07-.3.15-.54.4-.7.16-.11.22-.25.31-.39a.24.24 0 0 1 .04-.04.76.76 0 0 0 .17-.22l.03-.03c.29-.1.52-.33.68-.55l.18-.23.86-1.04c.11-.12.18-.24.3-.35a2.32 2.32 0 0 1 .63-.67l.06-.02a.01.01 0 0 0 0-.02 1.57 1.57 0 0 0-.5-.05l-.33-.06H7.5a.14.14 0 0 1-.07.02c-.2-.01-.34 0-.5-.09a.04.04 0 0 1-.01-.03c0-.02.01-.03.03-.04a.02.02 0 0 0 .01-.03c-.03-.1-.09-.13-.2-.17l-.02-.02-.01-.02V6.5c.04-.06.1-.07.18-.01a7.24 7.24 0 0 0 .3.2h.03a.17.17 0 0 0 .1-.09.05.05 0 0 1 .03-.03h.2l.36.03c.16.01.3-.04.4-.04.2 0 .36 0 .48.02h.06c.14-.1.26-.18.36-.27a.38.38 0 0 0 .06-.1.38.38 0 0 1 .07-.09c.22-.22.35-.37.6-.45Z" fill="url(#b)"/><path d="M13.59 12.38h.04a.02.02 0 0 1 0 .03l-.18.45a.45.45 0 0 1-.15.2c-.1.1-.21.2-.3.33-.1.12-.26.14-.43.17-.25.04-.38.23-.66.16-.11-.03-.21-.04-.3-.05a1.7 1.7 0 0 1-.99.04c-.34-.07-.64.01-.97-.01a3.02 3.02 0 0 0-.46 0h-.2a4.38 4.38 0 0 0-1.15.03c-.29.05-.62.06-.94-.01a1.68 1.68 0 0 0-.65-.02 1.51 1.51 0 0 1-.8-.07 1.03 1.03 0 0 0-.22-.09c-.2-.04-.4-.12-.4-.35l.24.19a.1.1 0 0 0 .05.02c.08 0 .17-.02.24 0 .1.04.14.1.2.17a.05.05 0 0 0 .04.01c.13-.02.23-.02.3.02l.11.04a2.48 2.48 0 0 1 .58-.09c.2-.01.27.04.46.12h.05c.13.02.28.01.46-.02.1-.02.2-.02.3.01a.07.07 0 0 0 .09-.02c.08-.08.22-.15.34-.1l.13.05h.04c.23-.06.42-.1.64 0a.2.2 0 0 0 .11 0c.12-.02.2-.05.32-.03.23.03.46.02.7-.02.18-.04.4.06.59.1H11.3c.06-.01.14-.1.23-.1.18-.03.37-.01.5.1a.05.05 0 0 0 .05.02c.27-.11.48-.27.78-.28.02 0 .03 0 .04-.02a.8.8 0 0 0 .14-.15.45.45 0 0 1 .32-.28.05.05 0 0 0 .03-.03c.03-.2.1-.37.19-.52Z" fill="#855018"/><defs><linearGradient id="a" x1="8.68" y1="5.67" x2="8.68" y2="11.9" gradientUnits="userSpaceOnUse"><stop stop-color="#E6A455"/><stop offset="1" stop-color="#B57224"/></linearGradient><linearGradient id="b" x1="8.68" y1="5.67" x2="8.68" y2="11.9" gradientUnits="userSpaceOnUse"><stop stop-color="#E6A455"/><stop offset="1" stop-color="#B57224"/></linearGradient></defs></svg>