<!-- by TradingView --><svg width="18" height="18" viewBox="0 0 18 18" xmlns="http://www.w3.org/2000/svg"><path fill="#F0F3FA" d="M0 0h18v18H0z"/><path d="M12.83 6.47c1.79-.25 3.02-.16 3.16.3.23.79-2.7 2.35-6.56 3.49-3.86 1.14-7.18 1.43-7.42.64-.11-.37.5-.93 1.6-1.53a.1.1 0 0 1 .1.01.1.1 0 0 1 .01.14c-.23.23-.34.43-.3.6.19.62 2.7.46 5.63-.37 2.92-.83 5.14-2 4.96-2.64-.03-.09-.38-.2-.96-.26l-.22-.38Z" fill="#12122C"/><path d="M9 7a2 2 0 0 1 .65.11.91.91 0 1 0 1.24 1.24A2 2 0 0 1 9 11a2 2 0 1 1 0-4Z" fill="#12122C"/><path d="M12.28 9.84c.29 0 .45.24.52.46a4.01 4.01 0 0 1-7.46.3l1.5-.04a2.66 2.66 0 0 0 4.62-.51c.25-.1.57-.2.82-.2ZM9.01 5A4 4 0 0 1 13 8.58l-1.35.67.02-.24a2.67 2.67 0 1 0-5.24.7H6c-.65 0-.92-.33-1-.62V9a4 4 0 0 1 4.01-4Z" fill="#12122C"/></svg>